<?xml version="1.0" encoding="UTF-8" standalone="no"?>
<svg
   inkscape:version="1.0 (4035a4fb49, 2020-05-01)"
   sodipodi:docname="0ad.svg"
   id="svg44"
   version="1.1"
   height="57.970001"
   width="57.970001"
   inkscape:export-filename="0ad.png"
   inkscape:export-xdpi="96"
   inkscape:export-ydpi="96"
   xmlns:inkscape="http://www.inkscape.org/namespaces/inkscape"
   xmlns:sodipodi="http://sodipodi.sourceforge.net/DTD/sodipodi-0.dtd"
   xmlns="http://www.w3.org/2000/svg"
   xmlns:svg="http://www.w3.org/2000/svg"
   xmlns:rdf="http://www.w3.org/1999/02/22-rdf-syntax-ns#"
   xmlns:cc="http://creativecommons.org/ns#"
   xmlns:dc="http://purl.org/dc/elements/1.1/">
  <sodipodi:namedview
     inkscape:current-layer="svg44"
     inkscape:window-maximized="1"
     inkscape:window-y="36"
     inkscape:window-x="0"
     inkscape:cy="37.207621"
     inkscape:cx="18.135547"
     inkscape:zoom="2.9804688"
     showgrid="false"
     id="namedview46"
     inkscape:window-height="932"
     inkscape:window-width="1920"
     inkscape:pageshadow="2"
     inkscape:pageopacity="0"
     guidetolerance="10"
     gridtolerance="10"
     objecttolerance="10"
     borderopacity="1"
     bordercolor="#666666"
     pagecolor="#ffffff"
     inkscape:showpageshadow="2"
     inkscape:pagecheckerboard="0"
     inkscape:deskcolor="#d1d1d1"
     showguides="true">
    <sodipodi:guide
       position="41.105576,37.321685"
       orientation="-0.70710678,-0.70710678"
       id="guide13"
       inkscape:locked="false" />
    <sodipodi:guide
       position="39.931264,35.224699"
       orientation="-0.70710678,-0.70710678"
       id="guide14"
       inkscape:locked="false" />
    <sodipodi:guide
       position="23.15538,28.682104"
       orientation="0,-1"
       id="guide15"
       inkscape:locked="false" />
    <sodipodi:guide
       position="24.665209,32.288919"
       orientation="1,0"
       id="guide16"
       inkscape:locked="false" />
  </sodipodi:namedview>
  <metadata
     id="metadata2">
    <rdf:RDF>
      <cc:Work
         rdf:about="">
        <dc:format>image/svg+xml</dc:format>
        <dc:type
           rdf:resource="http://purl.org/dc/dcmitype/StillImage" />
      </cc:Work>
    </rdf:RDF>
  </metadata>
  <defs
     id="defs22">
    <filter
       inkscape:collect="always"
       style="color-interpolation-filters:sRGB"
       id="filter1057"
       x="-0.026999999"
       width="1.054"
       y="-0.026999999"
       height="1.054">
      <feGaussianBlur
         inkscape:collect="always"
         stdDeviation="0.61875"
         id="feGaussianBlur1059" />
    </filter>
  </defs>
  <rect
     style="display:inline;opacity:0.3;fill:#141414;fill-opacity:1;stroke-width:2.74436;stroke-linecap:round;filter:url(#filter1057)"
     id="rect1055"
     width="55"
     height="55"
     x="1.4849999"
     y="1.4849999"
     ry="15" />
  <rect
     ry="14.999999"
     y="1.4850018"
     x="1.4850018"
     height="54.999996"
     width="54.999996"
     id="rect1045"
     style="display:inline;fill:#e6e6e6;fill-opacity:1;stroke-width:2.74436;stroke-linecap:round" />
  <path
     d="m 46.529922,39.762344 c 0,5.285156 0,10.570312 0,15.855468 4.448023,-1.537382 8.027164,-5.320748 9.336694,-9.838958 0.537151,-1.726969 0.656038,-3.54418 0.618384,-5.342265 0,-0.224749 0,-0.449497 0,-0.674245 -3.318359,0 -6.636719,0 -9.955078,0 z"
     style="display:inline;fill:#f6f6f6;stroke-width:2.74436;stroke-linecap:round"
     id="path12" />
  <path
     d="m 46.529922,2.3521874 c 0,5.2851565 0,10.5703126 0,15.8554686 3.318359,0 6.636719,0 9.955078,0 0.0095,-1.743521 0.03498,-3.507366 -0.403596,-5.209619 C 55.068426,8.6004579 51.936692,4.763129 47.835794,2.8820242 47.408671,2.686486 46.975032,2.5029237 46.529922,2.3521874 Z"
     style="display:inline;fill:#806d85;stroke-width:2.74436;stroke-linecap:round"
     id="path10" />
  <path
     d="m 24.680312,31.561172 c -4.835701,-0.02931 -11.666387,3.720028 -12.394531,6.4375 0,0 -1.321289,3.179687 2.056641,3.179687 h 20.724609 c 3.318591,0 2.007813,-3.179687 2.007813,-3.179687 -0.73554,-2.745073 -7.557805,-6.460976 -12.394532,-6.4375 z"
     style="fill:#cfcfcf;fill-rule:evenodd;stroke-width:1.73429"
     id="path13"
     sodipodi:nodetypes="ccsssc" />
  <circle
     style="fill:#cfcfcf;fill-opacity:1;fill-rule:evenodd;stroke-width:1.44097"
     id="path6"
     cx="24.705158"
     cy="22.77438"
     r="6.277524" />
  <path
     d="m 46.529922,18.207656 c 0,7.184896 0,14.369792 0,21.554688 3.318359,0 6.636719,0 9.955078,0 0,-7.184896 0,-14.369792 0,-21.554688 -3.318359,0 -6.636719,0 -9.955078,0 z"
     style="fill:#cfcfcf;fill-rule:evenodd"
     id="path11" />
</svg>
